<svg aria-hidden="true" style="position: absolute; width: 0; height: 0; overflow: hidden;" version="1.1" xmlns="http://www.w3.org/2000/svg" xmlns:xlink="http://www.w3.org/1999/xlink">
<defs>
 <symbol id="icon-home" viewBox="0 0 38 38">
    <path opacity="0.5" d="M32 0C35.3137 0 38 2.68629 38 6V32C38 35.3137 35.3137 38 32 38H6C2.68629 38 0 35.3137 0 32V6C0 2.68629 2.68629 0 6 0H32ZM5 18.627H9.09961V29.5557H15.9336V21.3594H21.4004V29.5557H28.2334V18.627H32.333L18.667 6.33301L5 18.627Z" />
  </symbol>
  <symbol id="icon-stats" viewBox="0 0 38 38">
    <path opacity="0.5" d="M32 0C35.3137 0 38 2.68629 38 6V32C38 35.3137 35.3137 38 32 38H6C2.68629 38 0 35.3137 0 32V6C0 2.68629 2.68629 0 6 0H32ZM29.5 11.667C28.2167 11.667 27.167 12.7669 27.167 14.1113C27.167 14.3312 27.1898 14.5389 27.248 14.7344L23.1064 19.0859C22.9198 19.0248 22.71 19 22.5 19C22.29 19 22.0802 19.0249 21.8936 19.0859L18.918 15.9688C18.9763 15.7732 19 15.553 19 15.333C18.9998 13.9888 17.9501 12.8889 16.667 12.8887C15.3838 12.8887 14.3332 13.9887 14.333 15.333C14.333 15.553 14.3567 15.7732 14.415 15.9688L9.09473 21.5303C8.90811 21.4692 8.70994 21.4443 8.5 21.4443C7.21673 21.4443 6.16709 22.5443 6.16699 23.8887C6.16699 25.2331 7.21667 26.333 8.5 26.333C9.78332 26.333 10.833 25.2331 10.833 23.8887C10.833 23.6688 10.8102 23.4611 10.752 23.2656L16.0596 17.6924C16.2462 17.7535 16.457 17.7773 16.667 17.7773C16.8769 17.7773 17.0869 17.7535 17.2734 17.6924L20.248 20.8086C20.1897 21.0041 20.167 21.2244 20.167 21.4443C20.167 22.7888 21.2167 23.8887 22.5 23.8887C23.7833 23.8887 24.833 22.7888 24.833 21.4443C24.833 21.2244 24.8103 21.0041 24.752 20.8086L28.9053 16.4697C29.0919 16.5308 29.2901 16.5557 29.5 16.5557C30.7832 16.5557 31.8329 15.4557 31.833 14.1113C31.833 12.7669 30.7833 11.667 29.5 11.667Z" />
  </symbol>
  <symbol id="icon-currency" viewBox="0 0 38 38">
    <path opacity="0.5" d="M32 0C35.3137 0 38 2.68629 38 6V32C38 35.3137 35.3137 38 32 38H6C2.68629 38 0 35.3137 0 32V6C0 2.68629 2.68629 0 6 0H32ZM17.2451 11.1318C14.8314 11.6545 12.8906 13.2227 12.8906 15.624C12.8908 18.498 15.267 19.929 18.7383 20.7627C21.849 21.5093 22.4717 22.6045 22.4717 23.7617C22.4715 24.6202 21.8613 25.9881 19.1123 25.9883C16.5494 25.9883 15.5413 24.844 15.4043 23.376H12.667C12.8165 26.1006 14.8563 27.6314 17.2451 28.1416V30.8408H20.9785V28.166C23.4047 27.7056 25.3329 26.2996 25.333 23.749C25.333 20.2154 22.3098 19.0085 19.4854 18.2744C16.6609 17.5403 15.752 16.7807 15.752 15.5986C15.7521 14.2425 17.0096 13.2969 19.1123 13.2969C21.3268 13.297 22.148 14.3549 22.2227 15.9102H24.9727C24.8856 13.7701 23.5789 11.8036 20.9785 11.1689V8.44434H17.2451V11.1318Z" />
  </symbol>
<symbol id="icon-Arrow-up" viewBox="0 0 32 32">
<path stroke-linejoin="miter" stroke-linecap="butt" stroke-miterlimit="4" stroke-width="1.3333" d="M7.529 18.667l8.471-8.471 8.471 8.471"></path>
</symbol>
<symbol id="icon-Arrow" viewBox="0 0 32 32">
<path stroke-linejoin="miter" stroke-linecap="butt" stroke-miterlimit="4" stroke-width="1.3333" d="M24.47 10.196l-8.471 8.471-8.471-8.471"></path>
</symbol>
<symbol id="icon-date-range" viewBox="0 0 32 32">
<path d="M12 14.667h-2.667v2.667h2.667v-2.667zM17.333 14.667h-2.667v2.667h2.667v-2.667zM22.667 14.667h-2.667v2.667h2.667v-2.667zM25.333 5.333h-1.333v-2.667h-2.667v2.667h-10.667v-2.667h-2.667v2.667h-1.333c-1.48 0-2.653 1.2-2.653 2.667l-0.013 18.667c0 1.467 1.187 2.667 2.667 2.667h18.667c1.467 0 2.667-1.2 2.667-2.667v-18.667c0-1.467-1.2-2.667-2.667-2.667zM25.333 26.667h-18.667v-14.667h18.667v14.667z"></path>
</symbol>
<symbol id="icon-user-02" viewBox="0 0 32 32">
<path d="M16 20c-4.227 0-7.986 2.041-10.379 5.208-0.515 0.682-0.773 1.022-0.764 1.483 0.006 0.356 0.23 0.805 0.51 1.025 0.362 0.284 0.865 0.284 1.869 0.284h17.527c1.005 0 1.507 0 1.869-0.284 0.28-0.22 0.503-0.669 0.51-1.025 0.008-0.461-0.249-0.801-0.764-1.483-2.393-3.167-6.152-5.208-10.379-5.208z"></path>
<path d="M16 16c3.314 0 6-2.686 6-6s-2.686-6-6-6c-3.314 0-6 2.686-6 6s2.686 6 6 6z"></path>
</symbol>
<symbol id="icon-email" viewBox="0 0 32 32">
<path d="M26.667 5.333h-21.333c-1.467 0-2.653 1.2-2.653 2.667l-0.013 16c0 1.467 1.2 2.667 2.667 2.667h21.333c1.467 0 2.667-1.2 2.667-2.667v-16c0-1.467-1.2-2.667-2.667-2.667zM26.667 10.667l-10.667 6.667-10.667-6.667v-2.667l10.667 6.667 10.667-6.667v2.667z"></path>
</symbol>
<symbol id="icon-lock" viewBox="0 0 32 32">
<path d="M24 10.667h-1.333v-2.667c0-3.68-2.987-6.667-6.667-6.667s-6.667 2.987-6.667 6.667v2.667h-1.333c-1.467 0-2.667 1.2-2.667 2.667v13.333c0 1.467 1.2 2.667 2.667 2.667h16c1.467 0 2.667-1.2 2.667-2.667v-13.333c0-1.467-1.2-2.667-2.667-2.667zM16 22.667c-1.467 0-2.667-1.2-2.667-2.667s1.2-2.667 2.667-2.667c1.467 0 2.667 1.2 2.667 2.667s-1.2 2.667-2.667 2.667zM20.133 10.667h-8.267v-2.667c0-2.28 1.853-4.133 4.133-4.133s4.133 1.853 4.133 4.133v2.667z"></path>
</symbol>
<symbol id="icon-wallet" viewBox="0 0 33 32">
<path fill="#508f8c" style="fill: var(--color1, #508f8c)" d="M24.555 13.288h-15.946c-1.116 0-2.060 0.691-2.458 1.661l14.763 3.614c0.412 0.106 0.85 0 1.169-0.266l4.638-3.88c-0.492-0.678-1.276-1.13-2.166-1.13zM24.555 7.973h-15.946c-1.462 0-2.658 1.196-2.658 2.658v0.731c0.784-0.452 1.688-0.731 2.658-0.731h15.946c0.97 0 1.874 0.279 2.658 0.731v-0.731c0-1.462-1.196-2.658-2.658-2.658z"></path>
<path fill="#081222" style="fill: var(--color2, #081222)" d="M24.555 5.315h-15.946c-2.937 0-5.315 2.379-5.315 5.315v10.631c0 2.937 2.379 5.315 5.315 5.315h15.946c2.937 0 5.315-2.379 5.315-5.315v-10.631c0-2.937-2.379-5.315-5.315-5.315zM22.083 18.298c-0.319 0.266-0.757 0.372-1.169 0.266l-14.763-3.614c0.399-0.97 1.342-1.661 2.458-1.661h15.946c0.89 0 1.674 0.452 2.166 1.116l-4.638 3.893zM27.213 11.361c-0.784-0.452-1.688-0.731-2.658-0.731h-15.946c-0.97 0-1.874 0.279-2.658 0.731v-0.731c0-1.462 1.196-2.658 2.658-2.658h15.946c1.462 0 2.658 1.196 2.658 2.658v0.731z"></path>
</symbol>
<symbol id="icon-exit-1" viewBox="0 0 32 32">
<path fill="#fcfcfc" style="fill: var(--color1, #fcfcfc)" d="M20.051 23.237h2.499v4.997c0 2.067-1.681 3.748-3.748 3.748h-15.054c-2.066 0-3.748-1.681-3.748-3.748v-24.486c0-2.066 1.681-3.748 3.748-3.748h15.054c2.067 0 3.748 1.681 3.748 3.748v4.997h-2.499v-4.997c0-0.689-0.56-1.249-1.249-1.249h-15.054c-0.689 0-1.249 0.561-1.249 1.249v24.486c0 0.689 0.561 1.249 1.249 1.249h15.054c0.689 0 1.249-0.561 1.249-1.249v-4.997zM26.111 10.102l-1.767 1.767 2.873 2.874h-16.161v2.499h16.161l-2.873 2.873 1.767 1.767 5.889-5.889-5.889-5.89z"></path>
</symbol>
 <symbol id="icon-plus" viewBox="0 0 32 32">
      <path stroke-width="3.2" d="M16 0v32M0 16h32" />
</symbol>
<symbol id="icon-minus" viewBox="0 0 20 2">
  <path d="M0 1L20 1" stroke="#FCFCFC" stroke-width="2" />
</symbol>
<symbol id="icon-edit" viewBox="0 0 32 32">
    <path stroke-linejoin="round" stroke-linecap="round" stroke-width="2.743"
    d="m24 13.334-5.333-5.333M3.333 28.667l4.513-.502c.551-.061.827-.092 1.085-.175.229-.074.446-.178.647-.311.226-.149.422-.345.814-.737L28 9.334a3.77 3.77 0 1 0-5.333-5.333L5.059 21.609c-.392.392-.588.588-.737.814a2.68 2.68 0 0 0-.311.647c-.083.258-.114.533-.175 1.085l-.501 4.513z" />
</symbol>
</defs>
</svg>
